# xmcd
#
# Track frame offsets:
#	150
#	16273
#	32659
#	44175
#	61641
#	76570
#	92639
#	105852
#	119100
#	132941
#	149644
#
# Disc length: 2186 seconds
# Revision: 0
# Processed by: cddbd v1.5.2PL0 Copyright (c) Steve Scherf et al.
# Submitted via: dBpowerAMP V12.0
#
DISCID=8c08880b
DTITLE=Brian Molnar and The Naked Hearts - Of The Fall
DYEAR=2011
DGENRE=Country
TTITLE0=Leaves Of Grass
TTITLE1=When It's Time To Go
TTITLE2=Sometimes It's You
TTITLE3=It Ain't Easy
TTITLE4=Some Dreams
TTITLE5=One Way Through The Door
TTITLE6=When You Couldn't Walk The Line
TTITLE7=The One
TTITLE8=Movin' Down The Road
TTITLE9=I Need You
TTITLE10=To Dance With You
EXTD=
EXTT0=
EXTT1=
EXTT2=
EXTT3=
EXTT4=
EXTT5=
EXTT6=
EXTT7=
EXTT8=
EXTT9=
EXTT10=
PLAYORDER=
